<svg width="14" height="13" viewBox="0 0 14 13" fill="none" xmlns="http://www.w3.org/2000/svg">
<path d="M1.61516 10.8681L0.908052 11.5752L2.32227 12.9894L3.02937 12.2823L1.61516 10.8681ZM13.4298 1.46767C13.4298 0.915383 12.9821 0.467667 12.4298 0.467668L3.42979 0.467668C2.87751 0.467668 2.42979 0.915383 2.42979 1.46767C2.42979 2.01995 2.87751 2.46767 3.42979 2.46767L11.4298 2.46767L11.4298 10.4677C11.4298 11.02 11.8775 11.4677 12.4298 11.4677C12.9821 11.4677 13.4298 11.02 13.4298 10.4677L13.4298 1.46767ZM3.02937 12.2823L13.1369 2.17477L11.7227 0.760561L1.61516 10.8681L3.02937 12.2823Z" fill="#215AA7"/>
</svg>
