<svg width="20" height="20" viewBox="0 0 20 20" fill="none" xmlns="http://www.w3.org/2000/svg">
<path d="M5.92 0H2.54C1.14 0 0 1.15 0 2.561V5.97C0 7.39 1.14 8.53 2.54 8.53H5.92C7.33 8.53 8.46 7.39 8.46 5.97V2.561C8.46 1.15 7.33 0 5.92 0" fill="#F4A258"/>
<path d="M5.92 11.4697H2.54C1.14 11.4697 0 12.6107 0 14.0307V17.4397C0 18.8497 1.14 19.9997 2.54 19.9997H5.92C7.33 19.9997 8.46 18.8497 8.46 17.4397V14.0307C8.46 12.6107 7.33 11.4697 5.92 11.4697" fill="#438AEB"/>
<path d="M17.46 0H14.08C12.67 0 11.54 1.15 11.54 2.561V5.97C11.54 7.39 12.67 8.53 14.08 8.53H17.46C18.86 8.53 20 7.39 20 5.97V2.561C20 1.15 18.86 0 17.46 0" fill="#438AEB"/>
<path d="M17.46 11.4697H14.08C12.67 11.4697 11.54 12.6107 11.54 14.0307V17.4397C11.54 18.8497 12.67 19.9997 14.08 19.9997H17.46C18.86 19.9997 20 18.8497 20 17.4397V14.0307C20 12.6107 18.86 11.4697 17.46 11.4697" fill="#F4A258"/>
</svg>
