<svg width="36" height="36" viewBox="0 0 36 36" fill="none" xmlns="http://www.w3.org/2000/svg">
<g clip-path="url(#clip0_8_684)">
<path d="M30.9081 23.023C30.5404 23.0226 30.1808 23.1313 29.8748 23.3353C29.5688 23.5393 29.3302 23.8295 29.1891 24.1691C29.0481 24.5088 29.011 24.8826 29.0825 25.2434C29.154 25.6041 29.3309 25.9356 29.5908 26.1958C29.8507 26.456 30.1819 26.6332 30.5426 26.7051C30.9032 26.777 31.2771 26.7404 31.6169 26.5997C31.9567 26.4591 32.2472 26.2208 32.4516 25.915C32.6559 25.6093 32.765 25.2498 32.765 24.882L30.9081 23.023ZM30.9081 23.023C31.4007 23.0238 31.8729 23.2199 32.2211 23.5685C32.5692 23.917 32.7648 24.3894 32.765 24.882L30.9081 23.023ZM30.9083 28.066H30.9084C31.7523 28.065 32.5613 27.7291 33.1578 27.1322C33.7543 26.5352 34.0896 25.726 34.09 24.8821V24.882C34.09 24.2522 33.9032 23.6365 33.5533 23.1128C33.2033 22.5892 32.7059 22.1811 32.1239 21.9401C31.542 21.6992 30.9017 21.6363 30.284 21.7594C29.6663 21.8824 29.099 22.1859 28.6538 22.6314C28.2086 23.0769 27.9055 23.6445 27.7829 24.2623C27.6603 24.8801 27.7237 25.5203 27.9651 26.1021C28.2064 26.6839 28.6149 27.181 29.1388 27.5305C29.6627 27.8801 30.2785 28.0665 30.9083 28.066Z" fill="#428AEB" stroke="#428AEB" stroke-width="0.2"/>
<path d="M14.6567 28.066H14.6567C15.5004 28.0646 16.3091 27.7286 16.9054 27.1317C17.5017 26.5348 17.837 25.7258 17.8376 24.8821V24.882C17.8376 24.2521 17.6508 23.6364 17.3008 23.1127C16.9508 22.5891 16.4533 22.181 15.8713 21.9401C15.2893 21.6992 14.649 21.6363 14.0313 21.7594C13.4136 21.8825 12.8462 22.1861 12.4011 22.6317C11.9559 23.0773 11.6529 23.6449 11.5304 24.2627C11.4079 24.8806 11.4714 25.5209 11.7128 26.1026C11.9543 26.6844 12.3629 27.1814 12.8869 27.5309C13.4109 27.8804 14.0268 28.0666 14.6567 28.066ZM13.6228 23.3349C13.9289 23.131 14.2886 23.0225 14.6563 23.023C15.1488 23.0241 15.6207 23.2205 15.9687 23.5689C16.3166 23.9174 16.5122 24.3896 16.5126 24.8821C16.5126 25.2498 16.4035 25.6094 16.1991 25.9151C15.9947 26.2209 15.7042 26.4591 15.3643 26.5998C15.0245 26.7404 14.6505 26.777 14.2899 26.7051C13.9292 26.6331 13.5979 26.4558 13.3381 26.1955C13.0782 25.9352 12.9014 25.6037 12.83 25.2429C12.7585 24.8821 12.7958 24.5083 12.9369 24.1686C13.078 23.829 13.3168 23.5388 13.6228 23.3349Z" fill="#428AEB" stroke="#428AEB" stroke-width="0.2"/>
<path d="M34.966 25.5445L34.9658 25.5445H33.4276C33.2519 25.5445 33.0833 25.4747 32.9591 25.3504C32.8349 25.2262 32.7651 25.0577 32.7651 24.882C32.7651 24.7063 32.8349 24.5378 32.9591 24.4135C33.0833 24.2893 33.2519 24.2195 33.4276 24.2195H34.7068V21.3368C34.7065 20.9506 34.6076 20.5708 34.4195 20.2335L34.966 25.5445ZM34.966 25.5445C35.2483 25.544 35.519 25.4317 35.7186 25.232C35.9183 25.0324 36.0306 24.7617 36.0311 24.4794V24.4792V21.3367V21.3367C36.0308 20.7248 35.8744 20.1231 35.5767 19.5886L35.5767 19.5885L32.5324 14.1286L32.5324 14.1285C32.4 13.8914 32.2067 13.6939 31.9725 13.5564C31.7383 13.419 31.4716 13.3466 31.2001 13.3468C31.2 13.3468 31.2 13.3468 31.2 13.3468L26.4878 13.3468C26.3121 13.3468 26.1436 13.4165 26.0193 13.5408C25.8951 13.665 25.8253 13.8335 25.8253 14.0092V24.8842C25.8253 25.0599 25.8951 25.2284 26.0193 25.3527C26.1436 25.4769 26.3121 25.5467 26.4878 25.5467H28.3898C28.5655 25.5467 28.734 25.4769 28.8583 25.3527C28.9825 25.2284 29.0523 25.0599 29.0523 24.8842C29.0523 24.7085 28.9825 24.54 28.8583 24.4158C28.734 24.2915 28.5655 24.2217 28.3898 24.2217H27.1503V14.6717H31.2C31.2356 14.6718 31.2705 14.6813 31.3012 14.6993C31.3318 14.7173 31.3571 14.7432 31.3745 14.7742C31.3745 14.7742 31.3745 14.7742 31.3745 14.7742L34.4195 20.2334L34.966 25.5445ZM35.4893 19.6372C35.7787 20.1569 35.9308 20.7419 35.9311 21.3367L35.4893 19.6372Z" fill="#428AEB" stroke="#428AEB" stroke-width="0.2"/>
<path d="M6.7439 25.5445H12.1371C12.3129 25.5445 12.4814 25.4747 12.6056 25.3505C12.7298 25.2262 12.7996 25.0577 12.7996 24.882C12.7996 24.7063 12.7298 24.5378 12.6056 24.4136C12.4814 24.2893 12.3129 24.2195 12.1371 24.2195H7.4064V20.556C7.4064 20.3803 7.3366 20.2118 7.21236 20.0875C7.08811 19.9633 6.9196 19.8935 6.7439 19.8935C6.56819 19.8935 6.39968 19.9633 6.27544 20.0875C6.1512 20.2118 6.0814 20.3803 6.0814 20.556V24.882C6.0814 25.0577 6.1512 25.2262 6.27544 25.3505C6.39968 25.4747 6.56819 25.5445 6.7439 25.5445Z" fill="#428AEB" stroke="#428AEB" stroke-width="0.2"/>
<path d="M7.4064 18.0004V18V14.2207C7.4064 14.045 7.3366 13.8765 7.21236 13.7523C7.08811 13.628 6.9196 13.5583 6.7439 13.5583C6.56819 13.5583 6.39968 13.628 6.27544 13.7523C6.1512 13.8765 6.0814 14.045 6.0814 14.2207V17.9977C6.0814 18.1734 6.1512 18.3419 6.27544 18.4662C6.39968 18.5904 6.56819 18.6602 6.7439 18.6602C6.91914 18.6602 7.08725 18.5908 7.21142 18.4671C7.33559 18.3435 7.40569 18.1756 7.4064 18.0004Z" fill="#428AEB" stroke="#428AEB" stroke-width="0.2"/>
<path d="M6.0814 9.5001V9.50025V11.9205C6.0814 12.0962 6.1512 12.2647 6.27544 12.389C6.39968 12.5132 6.56819 12.583 6.7439 12.583C6.9196 12.583 7.08811 12.5132 7.21236 12.389C7.3366 12.2647 7.4064 12.0962 7.4064 11.9205V9.70375H25.8252V24.2195H17.1749C16.9992 24.2195 16.8307 24.2893 16.7064 24.4135C16.5822 24.5378 16.5124 24.7063 16.5124 24.882C16.5124 25.0577 16.5822 25.2262 16.7064 25.3504C16.8307 25.4747 16.9992 25.5445 17.1749 25.5445H26.4877C26.6634 25.5445 26.8319 25.4747 26.9561 25.3504C27.0804 25.2262 27.1502 25.0577 27.1502 24.882V9.50025V9.5001C27.1497 9.20283 27.0314 8.91787 26.8212 8.70767C26.611 8.49747 26.3261 8.37918 26.0288 8.37875H26.0287L7.20365 8.37875L7.20357 8.37875C6.90616 8.37897 6.62098 8.49715 6.41061 8.70738C6.20023 8.9176 6.08183 9.20269 6.0814 9.5001Z" fill="#428AEB" stroke="#428AEB" stroke-width="0.2"/>
<path d="M1.82861 21.2185H8.96787C9.14358 21.2185 9.31209 21.1487 9.43633 21.0245C9.56058 20.9002 9.63037 20.7317 9.63037 20.556C9.63037 20.3803 9.56058 20.2118 9.43633 20.0875C9.31209 19.9633 9.14358 19.8935 8.96787 19.8935H1.82861C1.65291 19.8935 1.4844 19.9633 1.36016 20.0875C1.23591 20.2118 1.16611 20.3803 1.16611 20.556C1.16611 20.7317 1.23591 20.9002 1.36016 21.0245C1.4844 21.1487 1.65291 21.2185 1.82861 21.2185Z" fill="#428AEB" stroke="#428AEB" stroke-width="0.2"/>
<path d="M4.69434 18.6602H14.6566C14.8323 18.6602 15.0008 18.5904 15.125 18.4662C15.2493 18.342 15.3191 18.1734 15.3191 17.9977C15.3191 17.822 15.2493 17.6535 15.125 17.5293C15.0008 17.405 14.8323 17.3352 14.6566 17.3352H4.69434C4.51863 17.3352 4.35012 17.405 4.22588 17.5293C4.10164 17.6535 4.03184 17.822 4.03184 17.9977C4.03184 18.1734 4.10164 18.342 4.22588 18.4662C4.35012 18.5904 4.51863 18.6602 4.69434 18.6602Z" fill="#428AEB" stroke="#428AEB" stroke-width="0.2"/>
<path d="M0.49414 15.6903H4.38439C4.5601 15.6903 4.7286 15.6205 4.85285 15.4962C4.97709 15.372 5.04689 15.2035 5.04689 15.0278C5.04689 14.852 4.97709 14.6835 4.85285 14.5593C4.7286 14.4351 4.56009 14.3653 4.38439 14.3653H0.49414C0.318435 14.3653 0.149925 14.4351 0.0256823 14.5593C-0.0985606 14.6835 -0.168359 14.852 -0.168359 15.0278C-0.168359 15.2035 -0.0985604 15.372 0.0256823 15.4962C0.149925 15.6205 0.318434 15.6903 0.49414 15.6903Z" fill="#428AEB" stroke="#428AEB" stroke-width="0.2"/>
<path d="M3.75537 12.583H10.6224C10.7981 12.583 10.9666 12.5132 11.0908 12.389C11.2151 12.2647 11.2849 12.0962 11.2849 11.9205C11.2849 11.7448 11.2151 11.5763 11.0908 11.452C10.9666 11.3278 10.7981 11.258 10.6224 11.258H3.75537C3.57967 11.258 3.41116 11.3278 3.28691 11.452C3.16267 11.5763 3.09287 11.7448 3.09287 11.9205C3.09287 12.0962 3.16267 12.2647 3.28691 12.389C3.41116 12.5132 3.57967 12.583 3.75537 12.583Z" fill="#428AEB" stroke="#428AEB" stroke-width="0.2"/>
</g>
<defs>
<clipPath id="clip0_8_684">
<rect width="36" height="36" fill="white"/>
</clipPath>
</defs>
</svg>
