<svg width="19" height="23" viewBox="0 0 19 23" fill="none" xmlns="http://www.w3.org/2000/svg">
<path d="M9.59668 23C9.45829 23.0011 9.31989 22.9673 9.19612 22.9007L5.17135 20.7581C4.02817 20.148 3.13478 19.4646 2.43717 18.6685C0.910298 16.9273 0.0619122 14.6922 0.0472849 12.3737L2.7351e-05 4.74257C-0.00447337 3.86183 0.546865 3.07132 1.37275 2.77473L8.76293 0.122393C9.20175 -0.0377401 9.6912 -0.0411232 10.1379 0.114499L17.5562 2.6755C18.3866 2.9608 18.9481 3.74568 18.9526 4.62529L18.9998 12.262C19.0144 14.5772 18.1942 16.8225 16.6921 18.5817C16.0012 19.3891 15.1157 20.0826 13.9849 20.7029L9.99725 22.8962C9.87235 22.9639 9.73508 22.9988 9.59668 23" fill="#428AEB"/>
<path d="M8.92251 14C8.71143 14.0022 8.50034 13.9225 8.33763 13.7608L6.24546 11.6796C5.92114 11.3574 5.91784 10.8327 6.23776 10.5061C6.55879 10.1795 7.07991 10.1762 7.40423 10.4984L8.91042 11.9951L12.589 8.24661C12.909 7.92003 13.4312 7.91781 13.7555 8.23996C14.0787 8.56212 14.082 9.08686 13.7621 9.41344L9.5041 13.7531C9.34359 13.9169 9.1336 13.9988 8.92251 14" fill="#FBFDFF"/>
</svg>
