<svg width="13" height="13" viewBox="0 0 13 13" fill="none" xmlns="http://www.w3.org/2000/svg">
<path fill-rule="evenodd" clip-rule="evenodd" d="M4.01615 0.854492H8.56454C10.6576 0.854492 12.3549 2.5518 12.3549 4.64481V9.1932C12.3549 11.2862 10.6576 12.9835 8.56454 12.9835H4.01615C1.92314 12.9835 0.22583 11.2862 0.22583 9.1932V4.64481C0.22583 2.5518 1.92314 0.854492 4.01615 0.854492ZM8.56465 11.8465C10.0277 11.8465 11.2179 10.6564 11.2179 9.19331V4.64493C11.2179 3.18186 10.0277 1.9917 8.56465 1.9917H4.01626C2.5532 1.9917 1.36304 3.18186 1.36304 4.64493V9.19331C1.36304 10.6564 2.5532 11.8465 4.01626 11.8465H8.56465Z" fill="#215AA7"/>
<path fill-rule="evenodd" clip-rule="evenodd" d="M3.25806 6.91898C3.25806 5.24441 4.61575 3.88672 6.29031 3.88672C7.96488 3.88672 9.32257 5.24441 9.32257 6.91898C9.32257 8.59354 7.96488 9.95123 6.29031 9.95123C4.61575 9.95123 3.25806 8.59354 3.25806 6.91898ZM4.39526 6.91909C4.39526 7.9637 5.24581 8.81425 6.29043 8.81425C7.33504 8.81425 8.18559 7.9637 8.18559 6.91909C8.18559 5.87372 7.33504 5.02393 6.29043 5.02393C5.24581 5.02393 4.39526 5.87372 4.39526 6.91909Z" fill="#215AA7"/>
<circle cx="9.55004" cy="3.65991" r="0.404048" fill="#215AA7"/>
</svg>
