<svg width="26" height="28" viewBox="0 0 26 28" fill="none" xmlns="http://www.w3.org/2000/svg">
<path d="M13.0169 0.900121C12.2999 0.890441 11.7108 1.46354 11.7006 2.18039H11.7005V2.18279V2.20557V2.21516C11.7005 2.43115 11.6733 5.11122 10.4685 7.73374C9.86674 9.04375 8.97278 10.3357 7.64504 11.3002C6.31836 12.2638 4.55264 12.9049 2.19886 12.9049C1.48152 12.9049 0.9 13.4864 0.9 14.2038C0.9 14.9211 1.48152 15.5026 2.19886 15.5026C4.54325 15.5026 6.30424 16.1438 7.62913 17.1077C8.9551 18.0724 9.85014 19.3646 10.4542 20.6749C11.662 23.2946 11.6999 25.9714 11.7005 26.1919C11.6913 26.9089 12.2648 27.4978 12.9819 27.5075C13.6992 27.5171 14.2886 26.9435 14.2983 26.2261V26.2248V26.1996V26.1924C14.2983 25.9764 14.3255 23.2964 15.5304 20.6738C16.1323 19.3638 17.0264 18.0719 18.3543 17.1074C19.6811 16.1437 21.4471 15.5026 23.8011 15.5026C24.5185 15.5026 25.1 14.9211 25.1 14.2038C25.1 13.4864 24.5185 12.9049 23.8011 12.9049C21.4564 12.9049 19.6953 12.2637 18.3703 11.2999C17.0443 10.3352 16.1493 9.04296 15.5452 7.73272C14.3376 5.11348 14.2995 2.43719 14.2983 2.21553C14.3074 1.49864 13.7339 0.9098 13.0169 0.900121ZM12.9982 8.44051C13.9911 10.894 15.8014 12.9303 18.1233 14.2038C15.8014 15.4772 13.9911 17.5136 12.9982 19.9671C12.0058 17.5133 10.1955 15.4768 7.87324 14.2038C10.1955 12.9308 12.0058 10.8943 12.9982 8.44051Z" fill="#428AEB" stroke="white" stroke-width="0.2"/>
</svg>
