<svg width="36" height="35" viewBox="0 0 36 35" fill="none" xmlns="http://www.w3.org/2000/svg">
<path d="M5.39108 9.054C5.39108 6.92029 7.16208 5.19146 9.34783 5.18975H11.1486C12.1933 5.18975 13.1943 4.78487 13.9363 4.06737L15.1946 2.83737C16.7363 1.32379 19.2423 1.31696 20.7928 2.822L20.7946 2.82371L20.8103 2.83737L22.0703 4.06737C22.8123 4.78658 23.8133 5.18975 24.8581 5.18975H26.6571C28.8428 5.18975 30.6156 6.91858 30.6156 9.054V10.8085C30.6156 11.8283 31.0286 12.8072 31.7653 13.5315L33.0253 14.7615C34.5758 16.2666 34.5846 18.7129 33.0428 20.2265L33.0411 20.2282L33.0253 20.2436L31.7653 21.4736C31.0286 22.1962 30.6156 23.1734 30.6156 24.1932V25.9511C30.6156 28.0848 28.8446 29.8137 26.6588 29.8137H26.6571H24.8546C23.8098 29.8137 22.8071 30.2185 22.0668 30.9378L20.8068 32.166C19.2668 33.6796 16.7626 33.6882 15.2121 32.1865C15.2103 32.1848 15.2086 32.1831 15.2068 32.1814L15.1911 32.166L13.9328 30.9378C13.1926 30.2185 12.1898 29.8154 11.1451 29.8137H9.34783C7.16208 29.8137 5.39108 28.0848 5.39108 25.9511V24.1898C5.39108 23.17 4.97633 22.1928 4.23958 21.4702L2.98133 20.2402C1.43083 18.7368 1.42208 16.2922 2.96208 14.7786C2.96208 14.7769 2.96383 14.7752 2.96558 14.7735L2.98133 14.7581L4.23958 13.5281C4.97633 12.8038 5.39108 11.8266 5.39108 10.805V9.054" stroke="#428AEB" stroke-width="2" stroke-linecap="round" stroke-linejoin="round"/>
<path d="M13.5054 21.8933L22.5004 13.1125" stroke="#428AEB" stroke-width="2" stroke-linecap="round" stroke-linejoin="round"/>
<path d="M22.3671 21.7708H22.3829" stroke="#428AEB" stroke-width="2" stroke-linecap="round" stroke-linejoin="round"/>
<path d="M13.6171 13.2292H13.6329" stroke="#428AEB" stroke-width="2" stroke-linecap="round" stroke-linejoin="round"/>
</svg>
