<svg width="22" height="21" viewBox="0 0 22 21" fill="none" xmlns="http://www.w3.org/2000/svg">
<path d="M17.5085 13.0633C17.2236 13.3407 17.0927 13.7419 17.1576 14.1354L18.1354 19.5729C18.2179 20.0338 18.0243 20.5002 17.6405 20.7665C17.2643 21.0428 16.7639 21.076 16.3536 20.8549L11.4824 18.3019C11.313 18.2113 11.1249 18.1627 10.9324 18.1572H10.6344C10.531 18.1726 10.4298 18.2058 10.3374 18.2566L5.46505 20.8218C5.22418 20.9433 4.95142 20.9864 4.68415 20.9433C4.03304 20.8196 3.59859 20.1962 3.70528 19.5386L4.68415 14.1011C4.74904 13.7043 4.61816 13.301 4.3333 13.0191L0.361716 9.15097C0.0295595 8.82715 -0.0859254 8.34086 0.0658548 7.9021C0.213236 7.46445 0.589386 7.14505 1.04363 7.07321L6.50991 6.27637C6.92566 6.23327 7.29081 5.97907 7.47779 5.60331L9.88647 0.64101C9.94366 0.530491 10.0174 0.428813 10.1064 0.342609L10.2054 0.265245C10.2571 0.207776 10.3165 0.160252 10.3825 0.121571L10.5024 0.0773633L10.6894 0H11.1524C11.566 0.0431024 11.93 0.29177 12.1203 0.663114L14.5609 5.60331C14.7368 5.96471 15.0789 6.21558 15.4737 6.27637L20.94 7.07321C21.402 7.13952 21.788 7.46003 21.9409 7.9021C22.085 8.34528 21.9607 8.83157 21.6219 9.15097L17.5085 13.0633Z" fill="#428AEB"/>
</svg>
